<svg width="69" height="17" viewBox="0 0 69 17" fill="none" xmlns="http://www.w3.org/2000/svg">
<path d="M0.427734 9.90625C0.427734 8.95703 0.748047 8.17578 1.38867 7.5625C2.0293 6.94531 2.89453 6.63672 3.98438 6.63672C5.23047 6.63672 6.17188 6.99805 6.80859 7.7207C7.32031 8.30273 7.57617 9.01953 7.57617 9.87109C7.57617 10.8281 7.25781 11.6133 6.62109 12.2266C5.98828 12.8359 5.11133 13.1406 3.99023 13.1406C2.99023 13.1406 2.18164 12.8867 1.56445 12.3789C0.806641 11.75 0.427734 10.9258 0.427734 9.90625ZM2.81836 9.90039C2.81836 10.4551 2.92969 10.8652 3.15234 11.1309C3.37891 11.3965 3.66211 11.5293 4.00195 11.5293C4.3457 11.5293 4.62695 11.3984 4.8457 11.1367C5.06836 10.875 5.17969 10.4551 5.17969 9.87695C5.17969 9.33789 5.06836 8.9375 4.8457 8.67578C4.62305 8.41016 4.34766 8.27734 4.01953 8.27734C3.67188 8.27734 3.38477 8.41211 3.1582 8.68164C2.93164 8.94727 2.81836 9.35352 2.81836 9.90039ZM8.72461 6.77734H10.9453V7.79102C11.2773 7.37695 11.6133 7.08203 11.9531 6.90625C12.293 6.72656 12.707 6.63672 13.1953 6.63672C13.8555 6.63672 14.3711 6.83398 14.7422 7.22852C15.1172 7.61914 15.3047 8.22461 15.3047 9.04492V13H12.9082V9.57812C12.9082 9.1875 12.8359 8.91211 12.6914 8.75195C12.5469 8.58789 12.3438 8.50586 12.082 8.50586C11.793 8.50586 11.5586 8.61523 11.3789 8.83398C11.1992 9.05273 11.1094 9.44531 11.1094 10.0117V13H8.72461V6.77734ZM16.7285 6.77734H18.9492V7.79102C19.2812 7.37695 19.6172 7.08203 19.957 6.90625C20.2969 6.72656 20.7109 6.63672 21.1992 6.63672C21.8594 6.63672 22.375 6.83398 22.7461 7.22852C23.1211 7.61914 23.3086 8.22461 23.3086 9.04492V13H20.9121V9.57812C20.9121 9.1875 20.8398 8.91211 20.6953 8.75195C20.5508 8.58789 20.3477 8.50586 20.0859 8.50586C19.7969 8.50586 19.5625 8.61523 19.3828 8.83398C19.2031 9.05273 19.1133 9.44531 19.1133 10.0117V13H16.7285V6.77734ZM31.6406 10.4805H26.8594C26.9023 10.8633 27.0059 11.1484 27.1699 11.3359C27.4004 11.6055 27.7012 11.7402 28.0723 11.7402C28.3066 11.7402 28.5293 11.6816 28.7402 11.5645C28.8691 11.4902 29.0078 11.3594 29.1562 11.1719L31.5059 11.3887C31.1465 12.0137 30.7129 12.4629 30.2051 12.7363C29.6973 13.0059 28.9688 13.1406 28.0195 13.1406C27.1953 13.1406 26.5469 13.0254 26.0742 12.7949C25.6016 12.5605 25.209 12.1914 24.8965 11.6875C24.5879 11.1797 24.4336 10.584 24.4336 9.90039C24.4336 8.92773 24.7441 8.14062 25.3652 7.53906C25.9902 6.9375 26.8516 6.63672 27.9492 6.63672C28.8398 6.63672 29.543 6.77148 30.0586 7.04102C30.5742 7.31055 30.9668 7.70117 31.2363 8.21289C31.5059 8.72461 31.6406 9.39062 31.6406 10.2109V10.4805ZM29.2148 9.33789C29.168 8.87695 29.043 8.54688 28.8398 8.34766C28.6406 8.14844 28.377 8.04883 28.0488 8.04883C27.6699 8.04883 27.3672 8.19922 27.1406 8.5C26.9961 8.6875 26.9043 8.9668 26.8652 9.33789H29.2148Z" fill="white"/>
<path d="M41.3613 10.5684L43.6289 10.8262C43.5039 11.2988 43.2988 11.709 43.0137 12.0566C42.7285 12.4004 42.3633 12.668 41.918 12.8594C41.4766 13.0508 40.9141 13.1465 40.2305 13.1465C39.5703 13.1465 39.0195 13.0859 38.5781 12.9648C38.1406 12.8398 37.7637 12.6406 37.4473 12.3672C37.1309 12.0898 36.8828 11.7656 36.7031 11.3945C36.5234 11.0234 36.4336 10.5312 36.4336 9.91797C36.4336 9.27734 36.543 8.74414 36.7617 8.31836C36.9219 8.00586 37.1406 7.72656 37.418 7.48047C37.6953 7.23047 37.9805 7.04492 38.2734 6.92383C38.7383 6.73242 39.334 6.63672 40.0605 6.63672C41.0762 6.63672 41.8496 6.81836 42.3809 7.18164C42.916 7.54492 43.291 8.07617 43.5059 8.77539L41.2617 9.07422C41.1914 8.80859 41.0625 8.60938 40.875 8.47656C40.6914 8.33984 40.4434 8.27148 40.1309 8.27148C39.7363 8.27148 39.416 8.41406 39.1699 8.69922C38.9277 8.98047 38.8066 9.4082 38.8066 9.98242C38.8066 10.4941 38.9277 10.8828 39.1699 11.1484C39.4121 11.4141 39.7207 11.5469 40.0957 11.5469C40.4082 11.5469 40.6699 11.4668 40.8809 11.3066C41.0957 11.1465 41.2559 10.9004 41.3613 10.5684ZM44.4316 9.90625C44.4316 8.95703 44.752 8.17578 45.3926 7.5625C46.0332 6.94531 46.8984 6.63672 47.9883 6.63672C49.2344 6.63672 50.1758 6.99805 50.8125 7.7207C51.3242 8.30273 51.5801 9.01953 51.5801 9.87109C51.5801 10.8281 51.2617 11.6133 50.625 12.2266C49.9922 12.8359 49.1152 13.1406 47.9941 13.1406C46.9941 13.1406 46.1855 12.8867 45.5684 12.3789C44.8105 11.75 44.4316 10.9258 44.4316 9.90625ZM46.8223 9.90039C46.8223 10.4551 46.9336 10.8652 47.1562 11.1309C47.3828 11.3965 47.666 11.5293 48.0059 11.5293C48.3496 11.5293 48.6309 11.3984 48.8496 11.1367C49.0723 10.875 49.1836 10.4551 49.1836 9.87695C49.1836 9.33789 49.0723 8.9375 48.8496 8.67578C48.627 8.41016 48.3516 8.27734 48.0234 8.27734C47.6758 8.27734 47.3887 8.41211 47.1621 8.68164C46.9355 8.94727 46.8223 9.35352 46.8223 9.90039ZM59.2793 4.41016V13H57.0469V12.0801C56.7344 12.4707 56.4492 12.7344 56.1914 12.8711C55.8477 13.0508 55.4648 13.1406 55.043 13.1406C54.1953 13.1406 53.5469 12.8184 53.0977 12.1738C52.6523 11.5293 52.4297 10.7461 52.4297 9.82422C52.4297 8.79297 52.6758 8.00391 53.168 7.45703C53.6641 6.91016 54.293 6.63672 55.0547 6.63672C55.4258 6.63672 55.7617 6.69922 56.0625 6.82422C56.3672 6.94922 56.6367 7.13672 56.8711 7.38672V4.41016H59.2793ZM56.8887 9.87109C56.8887 9.38281 56.7852 9.01953 56.5781 8.78125C56.3711 8.53906 56.1094 8.41797 55.793 8.41797C55.5156 8.41797 55.2832 8.5332 55.0957 8.76367C54.9082 8.99414 54.8145 9.38086 54.8145 9.92383C54.8145 10.4316 54.9102 10.8047 55.1016 11.043C55.2969 11.2773 55.5371 11.3945 55.8223 11.3945C56.127 11.3945 56.3809 11.2754 56.584 11.0371C56.7871 10.7988 56.8887 10.4102 56.8887 9.87109ZM67.6406 10.4805H62.8594C62.9023 10.8633 63.0059 11.1484 63.1699 11.3359C63.4004 11.6055 63.7012 11.7402 64.0723 11.7402C64.3066 11.7402 64.5293 11.6816 64.7402 11.5645C64.8691 11.4902 65.0078 11.3594 65.1562 11.1719L67.5059 11.3887C67.1465 12.0137 66.7129 12.4629 66.2051 12.7363C65.6973 13.0059 64.9688 13.1406 64.0195 13.1406C63.1953 13.1406 62.5469 13.0254 62.0742 12.7949C61.6016 12.5605 61.209 12.1914 60.8965 11.6875C60.5879 11.1797 60.4336 10.584 60.4336 9.90039C60.4336 8.92773 60.7441 8.14062 61.3652 7.53906C61.9902 6.9375 62.8516 6.63672 63.9492 6.63672C64.8398 6.63672 65.543 6.77148 66.0586 7.04102C66.5742 7.31055 66.9668 7.70117 67.2363 8.21289C67.5059 8.72461 67.6406 9.39062 67.6406 10.2109V10.4805ZM65.2148 9.33789C65.168 8.87695 65.043 8.54688 64.8398 8.34766C64.6406 8.14844 64.377 8.04883 64.0488 8.04883C63.6699 8.04883 63.3672 8.19922 63.1406 8.5C62.9961 8.6875 62.9043 8.9668 62.8652 9.33789H65.2148Z" fill="white"/>
<circle cx="34.5" cy="11.5" r="1.5" fill="#01FE87"/>
</svg>
